<svg width="223" height="54" viewBox="0 0 223 54" fill="none" xmlns="http://www.w3.org/2000/svg">
<g clip-path="url(#clip0_1053_3023)">
<path d="M50.3928 31.6625C50.3928 35.5427 47.2365 37.7862 41.1912 37.7862H29.2949L29.2949 15.342L40.5349 15.342C46.2871 15.342 49.243 17.6834 49.243 21.1782C49.243 23.4217 48.0612 25.1533 46.1854 26.1169C48.7493 26.9194 50.3928 28.8436 50.3928 31.6653V31.6625Z" fill="#59595B"/>
<path d="M50.3929 31.6625C50.3929 35.5427 47.2366 37.7862 41.1912 37.7862H38.5082C44.5565 37.7862 47.7099 35.5427 47.7099 31.6625C47.7099 28.8408 46.0664 26.9165 43.5025 26.1169C45.3754 25.1562 46.5572 23.4246 46.5572 21.1782C46.5572 17.6834 43.5983 15.342 37.8491 15.342H40.5321C46.2842 15.342 49.2401 17.6834 49.2401 21.1782C49.2401 23.4217 48.0583 25.1533 46.1826 26.1169C48.7465 26.9194 50.39 28.8436 50.39 31.6625H50.3929Z" fill="#444445"/>
<path d="M79.8677 17.9968V35.2463H75.0041V33.1955C73.6568 34.7027 71.6852 35.5052 69.5162 35.5052C65.0794 35.5052 61.958 33.0689 61.958 27.7448V17.9968H67.0858V27.0056C67.0858 29.8905 68.4012 31.1734 70.6689 31.1734C72.9367 31.1734 74.7428 29.6978 74.7428 26.5252V17.9968H79.8706H79.8677Z" fill="#59595B"/>
<path d="M101.854 28.0325L88.4769 28.0325C88.9705 30.1811 90.8434 31.4956 93.538 31.4956C95.4108 31.4956 96.7581 30.9491 97.9747 29.8273L100.701 32.7123C99.0578 34.5388 96.5926 35.5024 93.4044 35.5024C87.2922 35.5024 83.3142 31.7516 83.3142 26.6202C83.3142 21.4888 87.3561 17.738 92.7453 17.738C98.1344 17.738 101.947 21.1379 101.947 26.6835C101.947 27.0689 101.88 27.6126 101.848 28.0296L101.854 28.0325ZM88.413 25.1159H97.1211C96.7581 22.9356 95.0827 21.5233 92.783 21.5233C90.4833 21.5233 88.7731 22.9011 88.413 25.1159Z" fill="#59595B"/>
<path d="M126.831 12.8022V35.2464H121.506V26.045H111.056V35.2464H105.73V12.8022H111.056V21.6528H121.506V12.8022L126.831 12.8022Z" fill="#2BBBA8"/>
<path d="M147.569 25.4035V35.2463H142.769V33.0977C141.817 34.6682 139.976 35.5023 137.38 35.5023C133.24 35.5023 130.774 33.2588 130.774 30.276C130.774 27.2932 132.975 25.113 138.367 25.113H142.441C142.441 22.9643 141.126 21.7131 138.367 21.7131C136.495 21.7131 134.555 22.3229 133.274 23.3152L131.434 19.8205C133.373 18.4743 136.23 17.7351 139.059 17.7351C144.448 17.7351 147.569 20.1714 147.569 25.3977V25.4035ZM142.441 29.7957V28.0325H138.925C136.527 28.0325 135.769 28.8982 135.769 30.0516C135.769 31.3029 136.855 32.137 138.661 32.137C140.371 32.137 141.849 31.3661 142.441 29.7957Z" fill="#2BBBA8"/>
<path d="M180.27 17.9968L173.861 35.2463H168.931L164.953 24.5377L160.844 35.2463H155.914L149.538 17.9968H154.369L158.542 29.6691L162.88 17.9968H167.218L171.425 29.6691L175.731 17.9968H180.267H180.27Z" fill="#2BBBA8"/>
<path d="M190.261 28.4812L187.796 30.8542V35.2464H182.668V11.4561H187.796V24.9231L195.29 17.9969L201.403 17.9969L194.042 25.3086L202.062 35.2492H195.851L190.264 28.4841L190.261 28.4812Z" fill="#2BBBA8"/>
<path d="M47.9304 44.0769L24.4777 44.0769C22.5293 44.0769 20.941 42.5064 20.941 40.5735L20.941 11.5022C20.941 9.57214 22.5264 7.99878 24.4777 7.99878L47.643 7.99878C50.2708 7.99878 52.7389 9.01701 54.5914 10.8636C56.4439 12.7102 57.4544 15.1638 57.4341 17.7669L57.2715 40.6051L68.9935 40.6569C69.7368 40.6598 70.335 41.258 70.3321 41.9944C70.3292 42.7279 69.7281 43.3204 68.9877 43.3204H68.9819L54.5624 43.2571L54.7424 17.7467C54.7569 15.857 54.0223 14.0794 52.6808 12.739C51.3364 11.3986 49.5478 10.6594 47.6401 10.6594L24.4748 10.6594C24.0102 10.6594 23.6298 11.0362 23.6298 11.4964L23.6298 40.5677C23.6298 41.0308 24.0102 41.4047 24.4748 41.4047L47.9275 41.4047C48.6709 41.4047 49.2719 42.0001 49.2719 42.7365C49.2719 43.4728 48.6709 44.0682 47.9275 44.0682L47.9304 44.0769Z" fill="#58595B"/>
<path d="M67.8727 45.7077L74.3943 42.0174L67.9075 38.2666L67.8727 45.7077Z" fill="#58595B"/>
<path d="M38.6766 32.1457C38.4414 32.1457 38.2236 32.2147 38.0407 32.3327L37.0215 31.3259H28.7113V31.8005H36.8241L37.7039 32.6692C37.5848 32.8504 37.5152 33.0661 37.5152 33.2962C37.5152 33.929 38.0349 34.4468 38.6766 34.4468C39.3183 34.4468 39.8381 33.9319 39.8381 33.2962C39.8381 32.6606 39.3183 32.1457 38.6766 32.1457ZM38.6766 33.9722C38.2991 33.9722 37.9943 33.6702 37.9943 33.2962C37.9943 32.9223 38.2991 32.6203 38.6766 32.6203C39.0541 32.6203 39.359 32.9223 39.359 33.2962C39.359 33.6702 39.0541 33.9722 38.6766 33.9722Z" fill="white"/>
<path d="M39.5826 26.0334C39.0251 26.0334 38.5576 26.4246 38.4473 26.9452H28.7142V27.4198H38.4473C38.5576 27.9404 39.0251 28.3316 39.5826 28.3316C40.2214 28.3316 40.744 27.8167 40.744 27.1811C40.744 26.5454 40.2243 26.0305 39.5826 26.0305V26.0334ZM39.5826 27.8599C39.2051 27.8599 38.9002 27.5579 38.9002 27.1839C38.9002 26.81 39.2051 26.508 39.5826 26.508C39.9601 26.508 40.2649 26.81 40.2649 27.1839C40.2649 27.5579 39.9601 27.8599 39.5826 27.8599Z" fill="white"/>
<path d="M37.0419 30.5235C37.6807 30.5235 38.2034 30.0086 38.2034 29.373C38.2034 28.7373 37.6836 28.2224 37.0419 28.2224C36.4844 28.2224 36.0169 28.6136 35.9066 29.1342H28.7142V29.6088H35.9066C36.0169 30.1294 36.4844 30.5206 37.0419 30.5206V30.5235ZM37.0419 28.697C37.4194 28.697 37.7242 28.999 37.7242 29.373C37.7242 29.7469 37.4194 30.0489 37.0419 30.0489C36.6644 30.0489 36.3595 29.7469 36.3595 29.373C36.3595 28.999 36.6644 28.697 37.0419 28.697Z" fill="white"/>
<path d="M36.0111 23.8444C35.4536 23.8444 34.9861 24.2356 34.8758 24.7562H28.7142V25.2308H34.8758C34.9861 25.7515 35.4536 26.1426 36.0111 26.1426C36.6499 26.1426 37.1726 25.6278 37.1726 24.9921C37.1726 24.3564 36.6528 23.8416 36.0111 23.8416V23.8444ZM36.0111 25.6709C35.6336 25.6709 35.3287 25.3689 35.3287 24.995C35.3287 24.621 35.6336 24.319 36.0111 24.319C36.3886 24.319 36.6935 24.621 36.6935 24.995C36.6935 25.3689 36.3886 25.6709 36.0111 25.6709Z" fill="white"/>
<path d="M28.7142 22.5675V23.0421H36.8328L38.9786 20.8963C39.1586 21.0113 39.3764 21.0804 39.6087 21.0804C40.2475 21.0804 40.7702 20.5655 40.7702 19.9298C40.7702 19.2942 40.2504 18.7793 39.6087 18.7793C38.967 18.7793 38.4473 19.2942 38.4473 19.9298C38.4473 20.1628 38.5169 20.3814 38.6389 20.5626L36.6325 22.5675H28.7142ZM39.6087 19.2539C39.9862 19.2539 40.2911 19.5559 40.2911 19.9298C40.2911 20.3038 39.9862 20.6058 39.6087 20.6058C39.2312 20.6058 38.9264 20.3038 38.9264 19.9298C38.9264 19.5559 39.2312 19.2539 39.6087 19.2539Z" fill="white"/>
<path d="M109.851 51.2666H106.79V41.8121H109.948C110.874 41.8121 111.67 42.0013 112.335 42.3799C112.999 42.7554 113.509 43.2955 113.863 44.0003C114.22 44.702 114.398 45.5437 114.398 46.5255C114.398 47.5103 114.218 48.3567 113.858 49.0645C113.501 49.7724 112.984 50.3171 112.307 50.6988C111.63 51.0773 110.811 51.2666 109.851 51.2666ZM108.217 50.0202H109.772C110.493 50.0202 111.091 49.8847 111.568 49.6139C112.045 49.34 112.402 48.9445 112.639 48.4275C112.876 47.9073 112.995 47.2733 112.995 46.5255C112.995 45.7838 112.876 45.1544 112.639 44.6373C112.405 44.1203 112.056 43.7279 111.591 43.4601C111.127 43.1924 110.55 43.0585 109.86 43.0585H108.217V50.0202ZM118.125 51.4236C117.675 51.4236 117.269 51.3405 116.906 51.1743C116.543 51.005 116.255 50.7603 116.043 50.4403C115.833 50.1202 115.729 49.7278 115.729 49.2631C115.729 48.863 115.806 48.5336 115.96 48.2751C116.114 48.0166 116.321 47.8119 116.583 47.6611C116.844 47.5103 117.137 47.3965 117.46 47.3195C117.783 47.2426 118.112 47.1841 118.448 47.1441C118.873 47.0948 119.217 47.0548 119.482 47.0241C119.747 46.9902 119.939 46.9363 120.059 46.8625C120.179 46.7886 120.239 46.6686 120.239 46.5024V46.4701C120.239 46.0669 120.125 45.7545 119.898 45.5329C119.673 45.3113 119.337 45.2006 118.891 45.2006C118.426 45.2006 118.06 45.3037 117.792 45.5099C117.528 45.713 117.345 45.9392 117.243 46.1885L115.946 45.893C116.1 45.4622 116.324 45.1144 116.62 44.8497C116.918 44.5819 117.261 44.388 117.649 44.268C118.037 44.1449 118.445 44.0834 118.873 44.0834C119.156 44.0834 119.456 44.1172 119.773 44.1849C120.093 44.2496 120.391 44.3696 120.668 44.545C120.949 44.7204 121.178 44.9713 121.356 45.2975C121.535 45.6206 121.624 46.0407 121.624 46.5578V51.2666H120.276V50.2971H120.221C120.131 50.4756 119.998 50.6511 119.819 50.8234C119.641 50.9958 119.411 51.1389 119.131 51.2528C118.851 51.3666 118.516 51.4236 118.125 51.4236ZM118.425 50.3156C118.806 50.3156 119.133 50.2402 119.404 50.0894C119.677 49.9386 119.885 49.7416 120.027 49.4985C120.171 49.2523 120.244 48.9891 120.244 48.7091V47.795C120.194 47.8443 120.099 47.8904 119.958 47.9335C119.819 47.9735 119.661 48.0089 119.482 48.0397C119.304 48.0674 119.13 48.0935 118.96 48.1182C118.791 48.1397 118.65 48.1582 118.536 48.1736C118.268 48.2074 118.023 48.2644 117.802 48.3444C117.583 48.4244 117.408 48.5398 117.275 48.6906C117.146 48.8383 117.081 49.0353 117.081 49.2815C117.081 49.6231 117.208 49.8817 117.46 50.0571C117.712 50.2294 118.034 50.3156 118.425 50.3156ZM126.773 44.1757V45.2836H122.899V44.1757H126.773ZM123.938 42.4768H125.318V49.1846C125.318 49.4523 125.358 49.6539 125.438 49.7893C125.518 49.9217 125.622 50.0125 125.748 50.0617C125.877 50.1079 126.017 50.1309 126.168 50.1309C126.279 50.1309 126.376 50.1233 126.459 50.1079C126.542 50.0925 126.606 50.0802 126.653 50.0709L126.902 51.2112C126.822 51.242 126.708 51.2728 126.56 51.3035C126.413 51.3374 126.228 51.3559 126.006 51.3589C125.643 51.3651 125.305 51.3005 124.991 51.165C124.677 51.0296 124.423 50.8203 124.229 50.5372C124.035 50.2541 123.938 49.8986 123.938 49.4708V42.4768ZM130.363 51.4236C129.914 51.4236 129.507 51.3405 129.144 51.1743C128.781 51.005 128.493 50.7603 128.281 50.4403C128.072 50.1202 127.967 49.7278 127.967 49.2631C127.967 48.863 128.044 48.5336 128.198 48.2751C128.352 48.0166 128.56 47.8119 128.821 47.6611C129.083 47.5103 129.375 47.3965 129.698 47.3195C130.021 47.2426 130.351 47.1841 130.686 47.1441C131.111 47.0948 131.456 47.0548 131.72 47.0241C131.985 46.9902 132.177 46.9363 132.297 46.8625C132.417 46.7886 132.477 46.6686 132.477 46.5024V46.4701C132.477 46.0669 132.364 45.7545 132.136 45.5329C131.911 45.3113 131.576 45.2006 131.129 45.2006C130.665 45.2006 130.298 45.3037 130.031 45.5099C129.766 45.713 129.583 45.9392 129.481 46.1885L128.184 45.893C128.338 45.4622 128.563 45.1144 128.858 44.8497C129.157 44.5819 129.5 44.388 129.888 44.268C130.275 44.1449 130.683 44.0834 131.111 44.0834C131.394 44.0834 131.694 44.1172 132.011 44.1849C132.331 44.2496 132.63 44.3696 132.907 44.545C133.187 44.7204 133.416 44.9713 133.595 45.2975C133.773 45.6206 133.862 46.0407 133.862 46.5578V51.2666H132.514V50.2971H132.459C132.37 50.4756 132.236 50.6511 132.057 50.8234C131.879 50.9958 131.65 51.1389 131.369 51.2528C131.089 51.3666 130.754 51.4236 130.363 51.4236ZM130.663 50.3156C131.045 50.3156 131.371 50.2402 131.642 50.0894C131.916 49.9386 132.123 49.7416 132.265 49.4985C132.41 49.2523 132.482 48.9891 132.482 48.7091V47.795C132.433 47.8443 132.337 47.8904 132.196 47.9335C132.057 47.9735 131.899 48.0089 131.72 48.0397C131.542 48.0674 131.368 48.0935 131.199 48.1182C131.029 48.1397 130.888 48.1582 130.774 48.1736C130.506 48.2074 130.261 48.2644 130.04 48.3444C129.821 48.4244 129.646 48.5398 129.514 48.6906C129.384 48.8383 129.32 49.0353 129.32 49.2815C129.32 49.6231 129.446 49.8817 129.698 50.0571C129.951 50.2294 130.272 50.3156 130.663 50.3156ZM140.078 41.8121L142.71 49.5123H142.816L145.447 41.8121H146.989L143.587 51.2666H141.939L138.537 41.8121H140.078ZM149.609 51.4236C149.16 51.4236 148.754 51.3405 148.39 51.1743C148.027 51.005 147.739 50.7603 147.527 50.4403C147.318 50.1202 147.213 49.7278 147.213 49.2631C147.213 48.863 147.29 48.5336 147.444 48.2751C147.598 48.0166 147.806 47.8119 148.067 47.6611C148.329 47.5103 148.621 47.3965 148.944 47.3195C149.268 47.2426 149.597 47.1841 149.932 47.1441C150.357 47.0948 150.702 47.0548 150.966 47.0241C151.231 46.9902 151.423 46.9363 151.543 46.8625C151.663 46.7886 151.723 46.6686 151.723 46.5024V46.4701C151.723 46.0669 151.61 45.7545 151.382 45.5329C151.157 45.3113 150.822 45.2006 150.375 45.2006C149.911 45.2006 149.545 45.3037 149.277 45.5099C149.012 45.713 148.829 45.9392 148.727 46.1885L147.43 45.893C147.584 45.4622 147.809 45.1144 148.104 44.8497C148.403 44.5819 148.746 44.388 149.134 44.268C149.521 44.1449 149.929 44.0834 150.357 44.0834C150.64 44.0834 150.94 44.1172 151.257 44.1849C151.577 44.2496 151.876 44.3696 152.153 44.545C152.433 44.7204 152.662 44.9713 152.841 45.2975C153.019 45.6206 153.108 46.0407 153.108 46.5578V51.2666H151.76V50.2971H151.705C151.616 50.4756 151.482 50.6511 151.303 50.8234C151.125 50.9958 150.896 51.1389 150.616 51.2528C150.335 51.3666 150 51.4236 149.609 51.4236ZM149.909 50.3156C150.291 50.3156 150.617 50.2402 150.888 50.0894C151.162 49.9386 151.37 49.7416 151.511 49.4985C151.656 49.2523 151.728 48.9891 151.728 48.7091V47.795C151.679 47.8443 151.583 47.8904 151.442 47.9335C151.303 47.9735 151.145 48.0089 150.966 48.0397C150.788 48.0674 150.614 48.0935 150.445 48.1182C150.275 48.1397 150.134 48.1582 150.02 48.1736C149.752 48.2074 149.508 48.2644 149.286 48.3444C149.067 48.4244 148.892 48.5398 148.76 48.6906C148.63 48.8383 148.566 49.0353 148.566 49.2815C148.566 49.6231 148.692 49.8817 148.944 50.0571C149.197 50.2294 149.518 50.3156 149.909 50.3156ZM156.327 41.8121V51.2666H154.947V41.8121H156.327ZM158.184 51.2666V44.1757H159.565V51.2666H158.184ZM158.881 43.0816C158.641 43.0816 158.435 43.0016 158.263 42.8415C158.093 42.6784 158.009 42.4845 158.009 42.2599C158.009 42.0321 158.093 41.8382 158.263 41.6782C158.435 41.5151 158.641 41.4335 158.881 41.4335C159.121 41.4335 159.326 41.5151 159.495 41.6782C159.668 41.8382 159.754 42.0321 159.754 42.2599C159.754 42.4845 159.668 42.6784 159.495 42.8415C159.326 43.0016 159.121 43.0816 158.881 43.0816ZM164.076 51.4051C163.504 51.4051 162.993 51.2589 162.543 50.9665C162.097 50.6711 161.746 50.251 161.491 49.7062C161.238 49.1584 161.112 48.5013 161.112 47.735C161.112 46.9687 161.24 46.3131 161.495 45.7684C161.754 45.2236 162.108 44.8066 162.557 44.5173C163.007 44.228 163.516 44.0834 164.085 44.0834C164.525 44.0834 164.879 44.1572 165.147 44.305C165.418 44.4496 165.627 44.6189 165.775 44.8128C165.926 45.0067 166.043 45.1775 166.126 45.3252H166.209V41.8121H167.589V51.2666H166.241V50.1633H166.126C166.043 50.3141 165.923 50.4864 165.766 50.6803C165.612 50.8742 165.399 51.0435 165.129 51.1881C164.858 51.3328 164.507 51.4051 164.076 51.4051ZM164.381 50.2279C164.778 50.2279 165.113 50.1233 165.387 49.914C165.664 49.7016 165.873 49.4077 166.015 49.0322C166.16 48.6568 166.232 48.2197 166.232 47.7211C166.232 47.2287 166.161 46.7979 166.02 46.4285C165.878 46.0592 165.67 45.7715 165.396 45.5653C165.122 45.359 164.784 45.2559 164.381 45.2559C163.965 45.2559 163.619 45.3637 163.342 45.5791C163.065 45.7945 162.856 46.0885 162.714 46.4608C162.576 46.8332 162.506 47.2533 162.506 47.7211C162.506 48.1951 162.577 48.6214 162.719 48.9999C162.86 49.3785 163.07 49.6785 163.347 49.9001C163.627 50.1186 163.971 50.2279 164.381 50.2279ZM171.623 51.4236C171.173 51.4236 170.767 51.3405 170.404 51.1743C170.041 51.005 169.753 50.7603 169.541 50.4403C169.332 50.1202 169.227 49.7278 169.227 49.2631C169.227 48.863 169.304 48.5336 169.458 48.2751C169.612 48.0166 169.819 47.8119 170.081 47.6611C170.343 47.5103 170.635 47.3965 170.958 47.3195C171.281 47.2426 171.611 47.1841 171.946 47.1441C172.371 47.0948 172.715 47.0548 172.98 47.0241C173.245 46.9902 173.437 46.9363 173.557 46.8625C173.677 46.7886 173.737 46.6686 173.737 46.5024V46.4701C173.737 46.0669 173.623 45.7545 173.396 45.5329C173.171 45.3113 172.835 45.2006 172.389 45.2006C171.924 45.2006 171.558 45.3037 171.29 45.5099C171.026 45.713 170.843 45.9392 170.741 46.1885L169.444 45.893C169.598 45.4622 169.822 45.1144 170.118 44.8497C170.416 44.5819 170.76 44.388 171.147 44.268C171.535 44.1449 171.943 44.0834 172.371 44.0834C172.654 44.0834 172.954 44.1172 173.271 44.1849C173.591 44.2496 173.89 44.3696 174.167 44.545C174.447 44.7204 174.676 44.9713 174.854 45.2975C175.033 45.6206 175.122 46.0407 175.122 46.5578V51.2666H173.774V50.2971H173.719C173.629 50.4756 173.496 50.6511 173.317 50.8234C173.139 50.9958 172.909 51.1389 172.629 51.2528C172.349 51.3666 172.014 51.4236 171.623 51.4236ZM171.923 50.3156C172.305 50.3156 172.631 50.2402 172.902 50.0894C173.176 49.9386 173.383 49.7416 173.525 49.4985C173.669 49.2523 173.742 48.9891 173.742 48.7091V47.795C173.693 47.8443 173.597 47.8904 173.456 47.9335C173.317 47.9735 173.159 48.0089 172.98 48.0397C172.802 48.0674 172.628 48.0935 172.458 48.1182C172.289 48.1397 172.148 48.1582 172.034 48.1736C171.766 48.2074 171.521 48.2644 171.3 48.3444C171.081 48.4244 170.906 48.5398 170.773 48.6906C170.644 48.8383 170.58 49.0353 170.58 49.2815C170.58 49.6231 170.706 49.8817 170.958 50.0571C171.21 50.2294 171.532 50.3156 171.923 50.3156ZM180.271 44.1757V45.2836H176.397V44.1757H180.271ZM177.436 42.4768H178.816V49.1846C178.816 49.4523 178.856 49.6539 178.936 49.7893C179.016 49.9217 179.12 50.0125 179.246 50.0617C179.375 50.1079 179.515 50.1309 179.666 50.1309C179.777 50.1309 179.874 50.1233 179.957 50.1079C180.04 50.0925 180.104 50.0802 180.151 50.0709L180.4 51.2112C180.32 51.242 180.206 51.2728 180.058 51.3035C179.911 51.3374 179.726 51.3559 179.504 51.3589C179.141 51.3651 178.803 51.3005 178.489 51.165C178.175 51.0296 177.921 50.8203 177.727 50.5372C177.533 50.2541 177.436 49.8986 177.436 49.4708V42.4768ZM181.798 51.2666V44.1757H183.178V51.2666H181.798ZM182.495 43.0816C182.255 43.0816 182.048 43.0016 181.876 42.8415C181.707 42.6784 181.622 42.4845 181.622 42.2599C181.622 42.0321 181.707 41.8382 181.876 41.6782C182.048 41.5151 182.255 41.4335 182.495 41.4335C182.735 41.4335 182.939 41.5151 183.109 41.6782C183.281 41.8382 183.367 42.0321 183.367 42.2599C183.367 42.4845 183.281 42.6784 183.109 42.8415C182.939 43.0016 182.735 43.0816 182.495 43.0816ZM188.022 51.4097C187.357 51.4097 186.777 51.2574 186.281 50.9527C185.786 50.648 185.401 50.2217 185.127 49.6739C184.853 49.1261 184.716 48.4859 184.716 47.7535C184.716 47.0179 184.853 46.3747 185.127 45.8238C185.401 45.2729 185.786 44.8451 186.281 44.5404C186.777 44.2357 187.357 44.0834 188.022 44.0834C188.686 44.0834 189.267 44.2357 189.762 44.5404C190.258 44.8451 190.642 45.2729 190.916 45.8238C191.19 46.3747 191.327 47.0179 191.327 47.7535C191.327 48.4859 191.19 49.1261 190.916 49.6739C190.642 50.2217 190.258 50.648 189.762 50.9527C189.267 51.2574 188.686 51.4097 188.022 51.4097ZM188.026 50.251C188.457 50.251 188.814 50.1371 189.097 49.9094C189.38 49.6816 189.59 49.3785 189.725 48.9999C189.864 48.6214 189.933 48.2043 189.933 47.7488C189.933 47.2964 189.864 46.8809 189.725 46.5024C189.59 46.1208 189.38 45.8145 189.097 45.5837C188.814 45.3529 188.457 45.2375 188.026 45.2375C187.592 45.2375 187.232 45.3529 186.946 45.5837C186.663 45.8145 186.452 46.1208 186.314 46.5024C186.178 46.8809 186.11 47.2964 186.11 47.7488C186.11 48.2043 186.178 48.6214 186.314 48.9999C186.452 49.3785 186.663 49.6816 186.946 49.9094C187.232 50.1371 187.592 50.251 188.026 50.251ZM194.248 47.0564V51.2666H192.868V44.1757H194.193V45.3298H194.28C194.444 44.9543 194.699 44.6527 195.047 44.425C195.398 44.1972 195.839 44.0834 196.372 44.0834C196.855 44.0834 197.278 44.1849 197.641 44.3881C198.004 44.5881 198.286 44.8866 198.486 45.2836C198.686 45.6807 198.786 46.1715 198.786 46.7563V51.2666H197.406V46.9225C197.406 46.4085 197.272 46.0069 197.004 45.7176C196.736 45.4252 196.369 45.279 195.901 45.279C195.581 45.279 195.296 45.3483 195.047 45.4868C194.801 45.6253 194.605 45.8284 194.461 46.0961C194.319 46.3608 194.248 46.6809 194.248 47.0564Z" fill="#59595B"/>
</g>
<defs>
<clipPath id="clip0_1053_3023">
<rect width="223" height="53" fill="white" transform="translate(0 0.58252)"/>
</clipPath>
</defs>
</svg>
