<svg width="73" height="73" viewBox="0 0 73 73" fill="none" xmlns="http://www.w3.org/2000/svg">
<mask id="mask0_1070_3681" style="mask-type:alpha" maskUnits="userSpaceOnUse" x="0" y="0" width="73" height="73">
<rect x="0.23938" y="0.352051" width="72" height="72" fill="#D9D9D9"/>
</mask>
<g mask="url(#mask0_1070_3681)">
<path d="M20.6389 62.4507C19.3389 62.4507 18.2639 62.0257 17.4139 61.1757C16.5639 60.3257 16.1389 59.2507 16.1389 57.9507V14.7507C16.1389 13.4507 16.5639 12.3757 17.4139 11.5257C18.2639 10.6757 19.3389 10.2507 20.6389 10.2507H44.1889L56.3389 22.4007V57.9507C56.3389 59.2507 55.9139 60.3257 55.0639 61.1757C54.2139 62.0257 53.1389 62.4507 51.8389 62.4507H20.6389ZM43.1389 23.4507V12.3507H20.6389C20.0389 12.3507 19.4889 12.6007 18.9889 13.1007C18.4889 13.6007 18.2389 14.1507 18.2389 14.7507V57.9507C18.2389 58.5507 18.4889 59.1007 18.9889 59.6007C19.4889 60.1007 20.0389 60.3507 20.6389 60.3507H51.8389C52.4389 60.3507 52.9889 60.1007 53.4889 59.6007C53.9889 59.1007 54.2389 58.5507 54.2389 57.9507V23.4507H43.1389Z" fill="#9A9A9B"/>
</g>
<circle cx="55.7394" cy="57.8521" r="8.5" fill="#EFE721"/>
<mask id="mask1_1070_3681" style="mask-type:alpha" maskUnits="userSpaceOnUse" x="50" y="52" width="12" height="12">
<rect x="50.2394" y="52.3521" width="10.92" height="10.92" fill="#D9D9D9"/>
</mask>
<g mask="url(#mask1_1070_3681)">
<path d="M55.3581 61.2245V55.7068L52.7664 58.2985L52.2869 57.812L55.6994 54.3995L59.1118 57.812L58.6324 58.2985L56.0406 55.7068V61.2245H55.3581Z" fill="#7E7E7E"/>
</g>
</svg>
