<svg width="63" height="71" viewBox="0 0 63 71" fill="none" xmlns="http://www.w3.org/2000/svg">
<path d="M32.6015 70.1806L38.0602 60.941C52.2474 58.0011 62.8895 45.6904 62.8895 30.9516C62.8895 14.0079 48.8433 0.279785 31.5138 0.279785C14.1844 0.279785 0.138184 14.0079 0.138184 30.945C0.138184 45.7625 10.8944 58.1258 25.189 60.9869L30.6208 70.1806C31.0573 70.9221 32.1584 70.9221 32.5948 70.1806H32.6015Z" fill="url(#paint0_linear_4839_138801)"/>
<path d="M31.6726 50.7429C19.7817 50.7429 10.1401 41.3196 10.1401 29.6979C10.1401 18.0762 19.7817 8.65283 31.6726 8.65283C43.5636 8.65283 53.2052 18.0762 53.2052 29.6979C53.2052 41.3196 43.5636 50.7429 31.6726 50.7429Z" fill="url(#paint1_linear_4839_138801)"/>
<path d="M45.5737 43.2846C53.2512 35.781 53.2512 23.6152 45.5737 16.1116C37.8963 8.60799 25.4487 8.60799 17.7713 16.1116C10.0938 23.6152 10.0938 35.781 17.7713 43.2846C25.4487 50.7882 37.8963 50.7882 45.5737 43.2846Z" fill="url(#paint2_linear_4839_138801)"/>
<mask id="mask0_4839_138801" style="mask-type:alpha" maskUnits="userSpaceOnUse" x="19" y="17" width="25" height="25">
<rect x="19.6729" y="17.6978" width="24" height="24" fill="#D9D9D9"/>
</mask>
<g mask="url(#mask0_4839_138801)">
<path d="M33.6229 39.6978H29.7229V35.6978H22.6729L26.6729 29.6978H24.6729L31.6729 19.6978L38.6729 29.6978H36.6729L40.6729 35.6978H33.6229V39.6978Z" fill="#1C9CE7"/>
</g>
<defs>
<linearGradient id="paint0_linear_4839_138801" x1="74.4111" y1="6.92731" x2="7.24161" y2="75.4374" gradientUnits="userSpaceOnUse">
<stop stop-color="#0DC2EA"/>
<stop offset="1" stop-color="#4822DE"/>
</linearGradient>
<linearGradient id="paint1_linear_4839_138801" x1="49.2371" y1="29.6913" x2="11.5165" y2="29.6913" gradientUnits="userSpaceOnUse">
<stop stop-color="white"/>
<stop offset="0.97" stop-color="#B6C6BD"/>
</linearGradient>
<linearGradient id="paint2_linear_4839_138801" x1="60.9413" y1="29.5996" x2="-25.3837" y2="29.895" gradientUnits="userSpaceOnUse">
<stop stop-color="white"/>
<stop offset="0.97" stop-color="#B6C6BD"/>
</linearGradient>
</defs>
</svg>
