<svg width="25" height="32" viewBox="0 0 25 32" fill="none" xmlns="http://www.w3.org/2000/svg">
<path d="M19.4344 26.8193L24.5769 21.6768L23.1034 20.2033L20.4928 22.814V16.4204H18.3761V22.814L15.7655 20.2033L14.2919 21.6768L19.4344 26.8193ZM14.1427 31.202V29.0854H24.7262V31.202H14.1427ZM2.58214 25.5575C1.88743 25.5575 1.2886 25.306 0.785647 24.8031C0.282715 24.3001 0.03125 23.7013 0.03125 23.0066V3.41344C0.03125 2.71873 0.282715 2.1199 0.785647 1.61694C1.2886 1.11401 1.88743 0.862549 2.58214 0.862549H12.3787L20.4928 8.97655V13.3267H18.3761V10.0349H11.3204V2.97916H2.58214C2.47357 2.97916 2.37406 3.0244 2.28361 3.11487C2.19313 3.20533 2.14789 3.30484 2.14789 3.4134V23.0066C2.14789 23.1151 2.19313 23.2146 2.28361 23.3051C2.37406 23.3956 2.47357 23.4408 2.58214 23.4408H11.049V25.5574L2.58214 25.5575Z" fill="#0ABFAB"/>
</svg>
