<svg width="373" height="251" viewBox="0 0 373 251" fill="none" xmlns="http://www.w3.org/2000/svg">
<path d="M261.731 114.3C259.242 117.826 261.302 122.427 263.79 125.05C266.836 128.232 269.968 127.759 271.341 130.555C273.057 133.952 269.411 136.446 271.298 140.015C272.457 142.208 274.044 141.692 276.361 144.444C279.193 147.842 276.404 148.788 278.421 151.239C284.856 159.194 287.43 153.69 291.335 155.754C296.397 158.463 299.787 160.786 302.275 160.226C312.057 158.076 309.054 151.669 313.774 149.175C320.166 145.821 323.298 132.103 318.922 127.286C316.605 124.749 314.331 124.448 314.117 122.341C313.817 119.288 318.407 118.428 318.836 114.773C319.351 110.601 313.859 108.623 314.675 105.097C315.49 101.7 321.11 101.786 321.453 99.3776C322.011 95.6794 309.955 89.057 297.513 89.444C291.549 89.659 281.853 91.5511 280.223 96.5394C279.279 99.4206 281.724 101.27 280.351 104.968C279.364 107.677 277.176 109.182 274.259 111.117C271.599 113.009 266.15 108.021 261.731 114.3Z" fill="#EEEEEE"/>
<path d="M291.548 112.064C289.574 111.978 288.588 125.051 289.746 126.771C290.905 128.491 293.007 129.738 293.178 131.631C293.307 133.523 292.492 166.764 291.805 166.248C291.119 165.775 285.37 157.045 286.528 155.024C287.687 153.003 288.974 149.864 288.716 147.198C288.459 144.531 288.459 140.79 287.687 140.876C286.957 140.962 287.558 147.456 287.043 148.746C286.528 149.993 286.442 150.982 285.713 151.025C284.984 151.068 284.941 144.144 283.825 144.273C282.71 144.402 283.482 154.551 283.868 156.4C284.254 158.292 285.584 164.743 286.829 167.151C288.073 169.559 291.763 172.053 291.848 172.87C291.934 173.687 291.334 193.039 291.334 193.039L301.073 193.211C301.073 193.211 297.469 155.024 298.284 153.777C299.099 152.487 304.162 142.209 305.277 141.134C306.35 140.102 307.036 133.652 306.436 133.566C305.878 133.48 305.535 139.758 304.334 139.844C303.132 139.93 302.489 127.717 301.631 127.846C300.772 127.975 302.489 140.532 302.017 141.306C301.545 142.08 298.842 146.725 297.941 146.639C297.04 146.553 298.456 112.322 297.683 111.935C296.911 111.548 296.31 111.849 295.839 115.462C295.367 119.031 294.423 126.857 293.908 126.857C293.393 126.857 292.02 125.653 292.02 124.879C291.848 124.105 292.406 112.107 291.548 112.064Z" fill="#BDBDBD"/>
<path d="M109.767 107.92C107.279 111.446 109.338 116.047 111.827 118.67C114.873 121.853 118.005 121.38 119.378 124.175C121.094 127.572 117.447 130.066 119.335 133.635C120.493 135.828 122.081 135.312 124.398 138.065C127.229 141.462 124.441 142.408 126.457 144.859C132.893 152.815 135.467 147.31 139.371 149.374C144.434 152.083 147.823 154.406 150.312 153.847C160.094 151.696 157.091 145.289 161.81 142.795C168.203 139.441 171.335 125.723 166.959 120.907C164.642 118.369 162.368 118.068 162.153 115.961C161.853 112.908 166.444 112.048 166.873 108.393C167.388 104.221 161.896 102.243 162.711 98.7171C163.526 95.3199 169.147 95.4059 169.49 92.9977C170.048 89.2995 157.992 82.6771 145.55 83.0641C139.586 83.2791 129.889 85.1712 128.259 90.1595C127.315 93.0407 129.761 94.8898 128.388 98.5881C127.401 101.297 125.213 102.802 122.295 104.737C119.635 106.63 114.187 101.641 109.767 107.92Z" fill="#EEEEEE"/>
<path d="M139.585 105.684C137.611 105.598 136.624 118.671 137.783 120.391C138.941 122.112 141.043 123.359 141.215 125.251C141.344 127.143 140.529 160.384 139.842 159.868C139.156 159.395 133.406 150.665 134.565 148.644C135.723 146.623 137.01 143.484 136.753 140.818C136.496 138.152 136.496 134.41 135.723 134.496C134.994 134.582 135.595 141.076 135.08 142.366C134.565 143.613 134.479 144.602 133.75 144.645C133.02 144.688 132.977 137.765 131.862 137.894C130.746 138.023 131.519 148.171 131.905 150.02C132.291 151.912 133.621 158.363 134.865 160.771C136.109 163.179 139.799 165.673 139.885 166.49C139.971 167.307 139.37 186.659 139.37 186.659L149.109 186.831C149.109 186.831 145.505 148.644 146.321 147.397C147.136 146.107 152.199 135.829 153.314 134.754C154.387 133.722 155.073 127.272 154.472 127.186C153.915 127.1 153.571 133.378 152.37 133.464C151.169 133.55 150.525 121.337 149.667 121.466C148.809 121.595 150.525 134.152 150.053 134.926C149.581 135.7 146.878 140.345 145.977 140.259C145.076 140.173 146.492 105.942 145.72 105.555C144.948 105.168 144.347 105.469 143.875 109.082C143.403 112.651 142.459 120.477 141.944 120.477C141.43 120.477 140.057 119.273 140.057 118.499C139.885 117.725 140.443 105.727 139.585 105.684Z" fill="#BDBDBD"/>
<path d="M80.2026 150.938C81.6185 152.959 80.4601 155.539 79.0442 157.001C77.328 158.807 75.569 158.506 74.7538 160.141C73.767 162.076 75.8264 163.495 74.7538 165.516C74.1102 166.763 73.2092 166.462 71.8792 168.01C70.2917 169.945 71.8363 170.461 70.7208 171.88C67.0739 176.396 65.6152 173.256 63.3842 174.46C60.5096 176.009 58.5789 177.299 57.163 176.998C51.6284 175.794 53.3446 172.138 50.6416 170.762C46.9947 168.87 45.2357 161.087 47.7241 158.377C49.0112 156.958 50.2984 156.786 50.4271 155.582C50.5987 153.862 48.0244 153.346 47.7241 151.282C47.4238 148.917 50.5558 147.799 50.0838 145.821C49.6119 143.885 46.437 143.971 46.2225 142.552C45.9221 140.445 52.7439 136.704 59.7802 136.919C63.1696 137.048 68.6614 138.123 69.5624 140.961C70.0772 142.595 68.7043 143.627 69.4766 145.735C70.0343 147.283 71.2785 148.1 72.9518 149.218C74.6251 150.207 77.7142 147.412 80.2026 150.938Z" fill="#EEEEEE"/>
<path d="M63.3394 149.691C64.4549 149.648 65.0127 157.044 64.3691 158.034C63.7256 159.023 62.5242 159.711 62.4384 160.786C62.3526 161.861 62.8246 180.653 63.2107 180.395C63.5969 180.137 66.8576 175.192 66.214 174.031C65.5705 172.87 64.8411 171.106 64.9698 169.601C65.1414 168.096 65.1414 165.946 65.5275 166.032C65.9566 166.075 65.6133 169.773 65.8708 170.461C66.1711 171.192 66.214 171.751 66.6431 171.751C67.0721 171.751 67.0721 167.881 67.7157 167.924C68.3592 168.01 67.9302 173.73 67.7157 174.805C67.5011 175.88 66.7289 179.535 66.0424 180.868C65.3559 182.201 63.2536 183.62 63.2107 184.093C63.1678 184.566 63.511 195.532 63.511 195.532L57.9764 195.661C57.9764 195.661 60.0358 174.031 59.5639 173.343C59.0919 172.611 56.2173 166.806 55.6167 166.204C55.016 165.602 54.6299 161.99 54.9731 161.904C55.3163 161.861 55.4879 165.387 56.1744 165.473C56.8609 165.516 57.2041 158.593 57.719 158.679C58.1909 158.722 57.247 165.86 57.5044 166.29C57.7619 166.72 59.3064 169.386 59.8213 169.3C60.3361 169.257 59.521 149.863 59.9929 149.648C60.4219 149.433 60.7652 149.605 61.0226 151.626C61.28 153.647 61.7949 158.077 62.1381 158.077C62.4384 158.077 63.2107 157.389 63.2107 156.958C63.1678 156.485 62.8675 149.691 63.3394 149.691Z" fill="#BDBDBD"/>
<path d="M186.323 250.654C289.226 250.654 372.646 234.116 372.646 213.716C372.646 193.315 289.226 176.777 186.323 176.777C83.4196 176.777 0 193.315 0 213.716C0 234.116 83.4196 250.654 186.323 250.654Z" fill="#626262" fill-opacity="0.12"/>
<path d="M216.507 180.182H161.589V185.944H216.507V180.182Z" fill="#E64D4E"/>
<path d="M185.404 214.196C184.331 215.013 182.486 216.518 181.543 217.121C180.599 217.723 179.354 218.626 179.312 220.862C179.312 223.055 182.486 226.882 184.675 226.796C186.863 226.71 189.952 222.926 190.595 221.378C191.196 219.787 193.942 214.712 191.368 213.336C188.793 211.96 185.404 214.196 185.404 214.196Z" fill="url(#paint0_linear_1158_9211)"/>
<path d="M207.37 171.578C207.498 172.696 209.515 175.233 209.043 178.071C208.571 180.867 204.624 196.434 201.878 201.637C199.089 206.84 197.287 211.098 194.37 211.872C191.452 212.646 189.822 206.711 189.779 206.066C189.736 205.421 194.627 196.004 194.884 193.466C195.142 190.929 197.33 182.888 196.086 182.157C194.799 181.426 194.884 180.996 193.597 181.211C192.31 181.469 189.479 175.448 189.479 175.448C189.479 175.448 193.898 162.634 197.115 162.376C203.036 161.945 207.198 170.245 207.37 171.578Z" fill="url(#paint1_linear_1158_9211)"/>
<path d="M190.035 215.013L191.193 218.109L195.441 217.12L197.071 214.583L194.325 211.874L190.035 215.013Z" fill="#F2DAD4"/>
<path d="M168.542 174.891C166.611 177.256 166.568 180.137 167.298 182.115C168.027 184.05 180.083 208.046 182.529 210.755C184.974 213.464 186.819 218.71 187.634 218.624C188.45 218.538 188.535 216.13 191.11 215.055C193.727 213.98 195.443 212.948 195.443 212.217C195.4 211.486 187.377 197.037 185.747 194.586C184.116 192.135 179.44 185.168 180.255 184.695C181.07 184.222 184.888 182.201 186.733 182.029C188.621 181.857 193.04 181.556 193.512 181.298C193.984 181.04 203.595 165.86 203.294 164.484C202.994 163.108 194.542 159.754 188.492 160.614C182.443 161.431 170.344 172.654 168.542 174.891Z" fill="#192B59"/>
<path d="M184.931 124.664C181.327 126.04 172.016 128.663 170.987 129.566C169.914 130.469 165.967 141.65 164.98 141.822C163.993 141.994 159.059 145.133 159.145 147.627C159.231 150.121 161.934 156.873 164.465 156.572C166.997 156.271 169.7 153.261 169.914 154.551C171.33 162.076 167.597 172.01 168.241 175.235C168.498 176.482 180.04 165.86 190.294 165.645C200.634 165.43 207.799 173.687 208.099 172.397C209.429 166.678 205.525 159.238 210.845 148.53C210.845 148.53 215.007 152.831 217.967 153.089C220.927 153.347 223.845 148.401 223.759 146.38C223.673 144.359 222.172 139.457 219.683 139.5C217.195 139.586 216.337 141.005 215.693 140.489C215.049 139.973 211.059 130.082 208.7 128.835C206.297 127.588 198.789 126.126 197.888 125.567C196.987 125.008 192.696 123.675 190.723 124.019C188.749 124.406 184.931 124.664 184.931 124.664Z" fill="url(#paint2_linear_1158_9211)"/>
<path d="M184.759 119.375C184.844 120.88 185.488 124.363 184.93 124.664C184.373 124.965 182.742 125.869 182.399 126.987C182.099 128.062 183.128 133.007 190.336 132.792C197.844 132.577 197.115 127.116 196.643 126.342C196.171 125.567 195.142 125.61 195.056 124.32C194.97 123.073 195.227 119.074 195.227 118.816C195.27 118.601 184.759 119.375 184.759 119.375Z" fill="url(#paint3_linear_1158_9211)"/>
<path d="M182.271 115.46C181.842 113.224 181.07 108.537 181.199 107.505C181.456 105.785 183.859 102.086 188.364 101.914C192.869 101.785 195.4 104.065 196.473 106.688C197.545 109.311 197.374 115.159 197.374 115.159C197.374 115.159 192.311 118.427 189.951 118.384C187.634 118.341 182.271 115.46 182.271 115.46Z" fill="#E64D4E"/>
<path d="M181.625 114.341C180.939 115.029 182.955 118.728 183.299 118.728C183.642 118.728 183.942 118.599 184.2 119.115C184.457 119.631 186.731 124.834 190.378 124.705C194.282 124.576 196.041 118.857 196.299 118.212C196.513 117.566 196.942 118.126 197.2 117.782C197.457 117.437 198.144 115.502 198.144 114.427C198.144 113.309 197.929 113.051 197.414 113.137C196.899 113.223 196.985 114.04 196.728 114.04C196.47 114.04 196.728 111.503 196.427 109.998C196.127 108.493 194.754 106.773 189.648 107.203C184.543 107.633 182.998 107.848 182.955 110.557C182.955 110.557 183.084 114.814 182.741 114.728C182.398 114.685 182.183 113.825 181.625 114.341Z" fill="#F2DAD4"/>
<path d="M195.056 212.302C195.656 211.829 197.888 213.377 198.488 213.764C199.089 214.151 200.333 214.882 201.105 215.097C201.878 215.269 202.564 216.129 202.264 217.161C201.963 218.236 199.947 222.666 199.861 223.569C199.775 224.472 200.419 227.869 199.389 229.718C198.402 231.524 194.498 237.415 192.439 237.415C190.379 237.415 190.122 232.47 190.465 231.223C190.808 229.976 190.808 228.6 190.594 227.31C190.379 226.02 190.079 223.354 189.221 221.762C188.363 220.171 187.161 218.494 188.062 217.204C188.963 215.871 190.251 215.398 191.023 215.527C191.838 215.613 192.138 216.559 192.482 216.344C192.825 216.086 193.554 215.527 194.326 215.097C195.099 214.624 194.67 212.603 195.056 212.302Z" fill="url(#paint4_linear_1158_9211)"/>
<path d="M165.835 177.256C165.792 177.256 165.792 177.256 165.835 177.256C165.492 177.256 165.234 176.955 165.234 176.611L168.023 16.0815C168.023 15.7375 168.323 15.4795 168.667 15.4795C169.01 15.4795 169.267 15.7805 169.267 16.1245L166.479 176.654C166.436 176.998 166.135 177.256 165.835 177.256Z" fill="#E64D4E"/>
<path d="M212.585 184.05C212.253 184.05 212.004 183.765 212.004 183.439L214.703 16.0495C214.703 15.7238 214.993 15.4795 215.284 15.4795C215.616 15.4795 215.865 15.7645 215.865 16.0903L213.166 183.48C213.166 183.806 212.876 184.05 212.585 184.05Z" fill="#E64D4E"/>
<path d="M160.56 138.469C160.731 139.759 159.873 142.683 159.787 143.801C159.659 144.962 159.659 146.854 160.302 148.875C160.946 150.896 162.018 152.015 163.434 150.853C164.85 149.692 165.451 148.574 165.408 147.628C165.365 146.682 163.992 140.06 164.078 139.329C164.164 138.598 167.21 135.932 167.553 135.932C167.853 135.932 168.454 136.276 168.883 136.491C169.312 136.663 169.698 135.975 169.698 135.673C169.698 135.372 169.655 135.243 169.698 135.028C169.741 134.813 170.042 134.254 169.956 133.824C169.913 133.437 169.913 132.878 170.042 132.577C170.127 132.276 170.771 131.932 170.771 131.717C170.771 131.502 170.9 130.513 169.999 129.696C169.098 128.879 168.54 128.492 167.21 128.707C165.837 128.922 164.035 128.836 163.563 129.954C162.962 131.115 160.174 135.372 160.56 138.469Z" fill="#F2DAD4"/>
<path d="M209.429 131.974C209.901 132.275 211.102 132.49 211.489 132.92C211.875 133.307 212.861 134.64 213.762 134.898C214.706 135.156 215.65 135.844 215.736 136.274C215.822 136.704 215.779 143.627 215.993 144.229C216.208 144.831 218.696 148.272 220.885 148.014C223.073 147.713 221.7 140.789 221.142 139.628C220.584 138.467 219.726 136.016 219.555 134.554C219.383 133.135 218.353 131.371 218.096 130.64C217.838 129.909 218.096 127.114 217.581 126.641C217.066 126.211 215.007 124.448 214.621 124.362C214.234 124.276 213.805 123.459 213.419 123.588C212.776 123.846 213.29 124.491 212.861 124.405C212.432 124.319 210.759 124.104 210.459 124.878C210.158 125.652 210.416 126.082 210.416 126.082C210.416 126.082 209.515 125.867 209.386 126.856C209.258 127.802 209.644 128.275 209.644 128.275C209.644 128.275 208.786 128.318 208.743 129.006C208.7 129.737 209.386 130.21 209.3 130.296C208.957 130.726 209 131.673 209.429 131.974Z" fill="#F2DAD4"/>
<path d="M266.224 5.08021L243.752 5.08021V3.05613L263.553 3.05613C263.553 3.0493 266.149 3.09032 266.224 5.08021Z" fill="#455A64"/>
<path d="M218.287 4.91029L240.759 4.91029V2.88621L220.958 2.88621C220.958 2.87937 218.362 2.9204 218.287 4.91029Z" fill="#455A64"/>
<path d="M240.793 7.25573H243.02C243.676 7.25573 244.215 6.72236 244.215 6.05907V3.68624C244.215 2.46906 243.232 1.48438 242.016 1.48438H241.798C240.582 1.48438 239.598 2.46906 239.598 3.68624V6.05907C239.598 6.71552 240.131 7.25573 240.793 7.25573Z" fill="#263238" fill-opacity="0.47"/>
<path d="M218.51 15.796C218.51 15.796 218.155 26.5113 220.286 30.7304L220.621 47.9145C220.641 48.8377 219.781 49.5967 218.715 49.5967C217.684 49.5967 216.844 48.8856 216.809 47.9898L216.345 33.322C216.345 33.322 214.87 31.3732 213.353 29.1508C211.823 26.9079 210.669 24.4872 209.904 21.9639L208.92 18.7158L212.725 15.5498L218.51 15.796Z" fill="#2BD3C6" fill-opacity="0.64"/>
<path d="M248.93 10.9828C250.562 12.3504 250.077 15.1198 248.076 15.831C247.7 15.9677 247.25 16.0498 246.73 16.0498C243.957 16.0498 221.158 16.0498 221.158 16.0498V18.2448H213.562C213.562 18.2448 203.754 25.3496 203.87 29.1311C203.87 29.1311 201.589 20.2347 191.35 18.3884V3.76172C191.35 3.76172 199.97 3.76172 205.817 5.08147C211.664 6.40123 227.592 9.90917 231.096 10.2032C234.6 10.4973 247.461 10.3468 247.461 10.3468C247.461 10.3468 248.226 10.3878 248.93 10.9828Z" fill="#2BD3C6" fill-opacity="0.64"/>
<path d="M237.701 10.6543H246.471V6.03174L237.701 6.03174V10.6543Z" fill="#2BD3C6" fill-opacity="0.64"/>
<path d="M205.792 9.18903C205.723 9.12065 206.297 8.43684 207.076 7.6573C207.854 6.88459 208.544 6.31019 208.613 6.37857C208.681 6.44695 208.107 7.13076 207.328 7.91031C206.543 8.68301 205.86 9.25741 205.792 9.18903Z" fill="#263238" fill-opacity="0.47"/>
<path d="M203.746 8.66829C203.677 8.59991 204.251 7.88191 205.03 7.06817C205.809 6.25444 206.498 5.64585 206.574 5.71423C206.642 5.78261 206.068 6.50061 205.289 7.31434C204.504 8.12808 203.814 8.73667 203.746 8.66829Z" fill="#263238" fill-opacity="0.47"/>
<path d="M201.575 8.05208C201.507 7.9837 202.081 7.26569 202.859 6.45196C203.638 5.63823 204.328 5.02964 204.403 5.09802C204.471 5.1664 203.898 5.8844 203.119 6.69813C202.34 7.51187 201.65 8.12046 201.575 8.05208Z" fill="#263238" fill-opacity="0.47"/>
<path d="M232.561 10.3987C232.561 10.3029 235.976 10.2004 240.19 10.173C244.404 10.1457 247.82 10.2004 247.82 10.3029C247.82 10.3987 244.404 10.5012 240.19 10.5286C235.976 10.556 232.561 10.4944 232.561 10.3987Z" fill="#263238" fill-opacity="0.47"/>
<path d="M237.678 6.03326C237.678 5.93753 239.679 5.85547 242.152 5.85547C244.624 5.85547 246.625 5.93753 246.625 6.03326C246.625 6.12899 244.624 6.21105 242.152 6.21105C239.686 6.21105 237.678 6.12899 237.678 6.03326Z" fill="#263238" fill-opacity="0.47"/>
<path d="M116.859 4.76919L139.331 4.76919V2.74512L119.53 2.74512C119.537 2.74512 116.941 2.77931 116.859 4.76919Z" fill="#455A64"/>
<path d="M164.799 4.60123L142.328 4.60123V2.57715L162.129 2.57715C162.129 2.57715 164.724 2.61134 164.799 4.60123Z" fill="#455A64"/>
<path d="M142.296 6.94811H140.069C139.413 6.94811 138.874 6.41474 138.874 5.75145V3.37863C138.874 2.16144 139.857 1.17676 141.073 1.17676H141.291C142.507 1.17676 143.491 2.16144 143.491 3.37863V5.75145C143.491 6.41474 142.958 6.94811 142.296 6.94811Z" fill="#263238" fill-opacity="0.47"/>
<path d="M164.667 16.0948C164.667 16.0948 165.022 26.8101 162.891 31.0292L162.557 48.2134C162.536 49.1365 163.397 49.8955 164.462 49.8955C165.494 49.8955 166.334 49.1844 166.368 48.2886L166.832 33.6277C166.832 33.6277 168.308 31.6788 169.824 29.4565C171.354 27.2136 172.508 24.7929 173.273 22.2696L174.257 19.0215L170.452 15.8555L164.667 16.0948Z" fill="#2BD3C6" fill-opacity="0.64"/>
<path d="M134.255 10.9808C132.623 12.3484 133.108 15.1179 135.109 15.829C135.485 15.9658 135.936 16.0478 136.455 16.0478C139.228 16.0478 162.028 16.0478 162.028 16.0478V18.2429L169.623 18.2429C169.623 18.2429 176.692 23.3646 177.129 28.4864C177.129 28.4864 179.117 18.3933 191.835 18.3933V3.75977C191.835 3.75977 183.215 3.75977 177.369 5.07952C171.522 6.39927 155.593 9.90722 152.089 10.2013C148.586 10.4953 135.724 10.3449 135.724 10.3449C135.724 10.3449 134.959 10.3859 134.255 10.9808Z" fill="#2BD3C6" fill-opacity="0.64"/>
<path d="M190.417 46.081C198.041 46.081 204.221 39.8937 204.221 32.2612C204.221 24.6287 198.041 18.4414 190.417 18.4414C182.793 18.4414 176.613 24.6287 176.613 32.2612C176.613 39.8937 182.793 46.081 190.417 46.081Z" fill="#263238" fill-opacity="0.47"/>
<path d="M204.23 32.2545C204.223 32.2545 204.216 32.1792 204.202 32.0288C204.189 31.8647 204.175 31.6459 204.155 31.3723C204.141 31.0851 204.114 30.7296 204.032 30.3124C203.963 29.8953 203.895 29.4166 203.738 28.8901C203.492 27.8234 202.987 26.572 202.201 25.2386C201.409 23.912 200.261 22.5307 198.711 21.3614C197.16 20.1989 195.207 19.2142 192.953 18.8176C190.712 18.4347 188.192 18.503 185.788 19.4193C184.579 19.8433 183.411 20.4792 182.338 21.2793C181.785 21.6622 181.3 22.1341 180.795 22.5991C180.337 23.1051 179.852 23.6043 179.463 24.1787C178.65 25.3069 177.947 26.5583 177.516 27.9396C177.072 29.3072 176.833 30.7638 176.813 32.2408C176.833 33.7247 177.072 35.1743 177.516 36.5488C177.947 37.9301 178.65 39.1815 179.463 40.3097C179.859 40.8841 180.337 41.3833 180.795 41.8962C181.3 42.3543 181.785 42.833 182.338 43.2159C182.858 43.6399 183.452 43.9545 184.012 44.2895C184.606 44.5767 185.18 44.8776 185.788 45.0759C188.192 45.9922 190.719 46.0606 192.953 45.6777C195.207 45.281 197.16 44.2964 198.711 43.1339C200.268 41.9646 201.409 40.5764 202.201 39.2567C202.987 37.9301 203.492 36.6719 203.738 35.6051C203.902 35.0786 203.963 34.5999 204.032 34.1828C204.114 33.7657 204.141 33.4169 204.155 33.1229C204.175 32.8494 204.195 32.6374 204.202 32.4664C204.209 32.3297 204.223 32.2545 204.23 32.2545C204.236 32.2545 204.236 32.3297 204.236 32.4801C204.23 32.6511 204.23 32.863 204.223 33.1366C204.223 33.4238 204.202 33.7862 204.134 34.2033C204.079 34.6204 204.025 35.1128 203.868 35.6462C203.635 36.7266 203.15 38.0053 202.365 39.3661C201.573 40.72 200.425 42.1355 198.854 43.3459C197.29 44.5425 195.302 45.5614 193.001 45.9785C190.719 46.382 188.131 46.3204 185.665 45.3905C185.036 45.1921 184.449 44.8844 183.841 44.5904C183.267 44.2485 182.659 43.9271 182.127 43.4895C181.56 43.0997 181.061 42.6142 180.542 42.1424C180.071 41.6227 179.579 41.1098 179.169 40.5217C178.336 39.3661 177.605 38.0805 177.168 36.665C176.71 35.2564 176.464 33.7657 176.444 32.2476C176.464 30.7296 176.71 29.2389 177.168 27.8302C177.612 26.4147 178.336 25.1292 179.169 23.9735C179.579 23.3854 180.071 22.8726 180.542 22.3529C181.061 21.8811 181.56 21.3956 182.127 21.0058C183.226 20.1852 184.429 19.5356 185.665 19.1116C188.131 18.1816 190.712 18.1201 193.001 18.5235C195.302 18.9407 197.29 19.9664 198.854 21.1562C200.425 22.3597 201.573 23.782 202.365 25.136C203.15 26.4968 203.635 27.7755 203.868 28.8559C204.018 29.3893 204.073 29.8748 204.134 30.2988C204.209 30.7159 204.223 31.0783 204.223 31.3655C204.23 31.639 204.236 31.8579 204.236 32.022C204.236 32.1792 204.236 32.2545 204.23 32.2545Z" fill="#263238" fill-opacity="0.47"/>
<path d="M190.419 43.4612C196.598 43.4612 201.607 38.4464 201.607 32.2604C201.607 26.0743 196.598 21.0596 190.419 21.0596C184.24 21.0596 179.231 26.0743 179.231 32.2604C179.231 38.4464 184.24 43.4612 190.419 43.4612Z" fill="#E0E0E0"/>
<path d="M190.417 38.5577C193.891 38.5577 196.707 35.738 196.707 32.2598C196.707 28.7816 193.891 25.9619 190.417 25.9619C186.942 25.9619 184.126 28.7816 184.126 32.2598C184.126 35.738 186.942 38.5577 190.417 38.5577Z" fill="#455A64"/>
<path d="M193.023 32.4862C193.023 33.929 191.855 35.0983 190.414 35.0983C188.973 35.0983 187.805 33.929 187.805 32.4862C187.805 31.0433 188.973 29.874 190.414 29.874C191.855 29.874 193.023 31.0433 193.023 32.4862Z" fill="#263238" fill-opacity="0.47"/>
<path d="M189.498 30.2515C189.498 31.1883 188.74 31.9474 187.804 31.9474C186.869 31.9474 186.11 31.1883 186.11 30.2515C186.11 29.3147 186.869 28.5557 187.804 28.5557C188.74 28.5557 189.498 29.3147 189.498 30.2515Z" fill="white"/>
<path d="M145.387 5.73145L136.617 5.73145V10.354H145.387V5.73145Z" fill="#2BD3C6" fill-opacity="0.64"/>
<path d="M177.384 9.53962C177.316 9.608 176.626 9.0336 175.847 8.26089C175.069 7.48819 174.495 6.79754 174.563 6.72916C174.631 6.66078 175.321 7.23518 176.1 8.00788C176.879 8.78059 177.452 9.47124 177.384 9.53962Z" fill="#263238" fill-opacity="0.47"/>
<path d="M179.436 8.12348C179.368 8.17134 178.678 7.74738 177.892 7.18666C177.114 6.61909 176.54 6.11991 176.608 6.07205C176.676 6.02418 177.366 6.44814 178.152 7.0157C178.93 7.57643 179.504 8.07561 179.436 8.12348Z" fill="#263238" fill-opacity="0.47"/>
<path d="M181.608 8.39881C181.539 8.46719 180.85 7.8586 180.064 7.04486C179.285 6.23113 178.712 5.51313 178.78 5.44475C178.848 5.37637 179.538 5.97812 180.324 6.79869C181.102 7.61926 181.676 8.33043 181.608 8.39881Z" fill="#263238" fill-opacity="0.47"/>
<path d="M150.612 10.3503C150.612 10.4461 147.197 10.5076 142.983 10.4803C138.769 10.4529 135.354 10.3503 135.354 10.2546C135.354 10.1589 138.769 10.0973 142.983 10.1247C147.197 10.1452 150.619 10.2478 150.612 10.3503Z" fill="#263238" fill-opacity="0.47"/>
<path d="M245.744 16.0322C245.744 16.1279 221.408 16.2237 191.389 16.2442C161.362 16.2647 137.026 16.2032 137.026 16.1006C137.026 16.0049 161.362 15.9091 191.389 15.8886C221.408 15.8749 245.744 15.9365 245.744 16.0322Z" fill="#263238" fill-opacity="0.47"/>
<path d="M221.156 18.2403C221.156 18.336 207.918 18.4181 191.594 18.4181C175.263 18.4181 162.032 18.336 162.032 18.2403C162.032 18.1446 175.263 18.0625 191.594 18.0625C207.925 18.0625 221.156 18.1377 221.156 18.2403Z" fill="#263238" fill-opacity="0.47"/>
<path d="M145.405 5.72955C145.405 5.82528 143.404 5.90734 140.931 5.90734C138.459 5.90734 136.458 5.82528 136.458 5.72955C136.458 5.63382 138.459 5.55176 140.931 5.55176C143.397 5.55176 145.405 5.63382 145.405 5.72955Z" fill="#263238" fill-opacity="0.47"/>
<path d="M181.42 41.5547C181.406 41.5683 181.167 41.3837 180.778 40.9939C180.388 40.6042 179.862 40.0024 179.323 39.175C178.237 37.5475 177.151 34.9012 177.219 31.8446C177.294 28.7948 178.503 26.1963 179.664 24.6235C180.245 23.8235 180.798 23.2422 181.208 22.873C181.618 22.5037 181.864 22.3259 181.877 22.3396C181.932 22.3943 180.969 23.1533 179.876 24.7603C178.783 26.3399 177.649 28.8837 177.581 31.8446C177.513 34.8055 178.53 37.3971 179.541 39.0314C180.552 40.6931 181.481 41.5 181.42 41.5547Z" fill="white"/>
<path d="M185.644 20.5606C185.671 20.6563 185.22 20.8478 184.694 21.1213C184.168 21.388 183.759 21.6478 183.69 21.5726C183.629 21.5042 183.964 21.1008 184.53 20.8068C185.097 20.5059 185.623 20.4649 185.644 20.5606Z" fill="white"/>
<path d="M193.891 35.3769C193.905 35.3906 193.83 35.5342 193.645 35.7735C193.461 36.0128 193.147 36.3206 192.689 36.6146C191.808 37.2095 190.23 37.7087 188.605 37.189C186.986 36.6488 185.995 35.3222 185.633 34.3238C185.442 33.8178 185.367 33.3802 185.353 33.0793C185.34 32.7784 185.367 32.6143 185.387 32.6143C185.456 32.6075 185.442 33.2844 185.866 34.2281C186.269 35.1581 187.225 36.3616 188.721 36.8539C190.216 37.3326 191.699 36.9155 192.566 36.4026C193.454 35.8898 193.843 35.329 193.891 35.3769Z" fill="white"/>
<path d="M120.895 6.77154C120.895 6.86727 118.334 6.94933 115.178 6.94933C112.023 6.94933 109.461 6.86727 109.461 6.77154C109.461 6.67581 112.023 6.59375 115.178 6.59375C118.334 6.59375 120.895 6.67581 120.895 6.77154Z" fill="#263238" fill-opacity="0.47"/>
<path d="M124.765 7.78521C124.765 7.88095 122.203 7.963 119.048 7.963C115.892 7.963 113.331 7.88095 113.331 7.78521C113.331 7.68948 115.892 7.60742 119.048 7.60742C122.21 7.60742 124.765 7.68948 124.765 7.78521Z" fill="#263238" fill-opacity="0.47"/>
<path d="M166.929 0.17779C166.929 0.273524 164.368 0.355581 161.212 0.355581C158.056 0.355581 155.495 0.273524 155.495 0.17779C155.495 0.0820567 158.056 0 161.212 0C164.368 0 166.929 0.0752186 166.929 0.17779Z" fill="#263238" fill-opacity="0.47"/>
<path d="M170.798 1.18756C170.798 1.28329 168.236 1.36535 165.081 1.36535C161.925 1.36535 159.364 1.28329 159.364 1.18756C159.364 1.09182 161.925 1.00977 165.081 1.00977C168.243 1.00977 170.798 1.08498 170.798 1.18756Z" fill="#263238" fill-opacity="0.47"/>
<path d="M222.66 0.734431C222.66 0.830164 220.098 0.912222 216.943 0.912222C213.787 0.912222 211.226 0.830164 211.226 0.734431C211.226 0.638697 213.787 0.556641 216.943 0.556641C220.105 0.556641 222.66 0.638697 222.66 0.734431Z" fill="#263238" fill-opacity="0.47"/>
<path d="M226.53 1.74908C226.53 1.84481 223.968 1.92687 220.813 1.92687C217.657 1.92687 215.096 1.84481 215.096 1.74908C215.096 1.65335 217.657 1.57129 220.813 1.57129C223.968 1.57129 226.53 1.65335 226.53 1.74908Z" fill="#263238" fill-opacity="0.47"/>
<path d="M265.464 7.05963C265.464 7.15536 262.903 7.23742 259.747 7.23742C256.592 7.23742 254.03 7.15536 254.03 7.05963C254.03 6.96389 256.592 6.88184 259.747 6.88184C262.91 6.88184 265.464 6.96389 265.464 7.05963Z" fill="#263238" fill-opacity="0.47"/>
<path d="M269.335 8.07135C269.335 8.16708 266.774 8.24914 263.618 8.24914C260.463 8.24914 257.901 8.16708 257.901 8.07135C257.901 7.97561 260.463 7.89355 263.618 7.89355C266.774 7.89355 269.335 7.97561 269.335 8.07135Z" fill="#263238" fill-opacity="0.47"/>
<path d="M170.343 7.56834C170.35 7.58885 170.09 7.69826 169.612 7.86922C169.134 8.04017 168.437 8.27267 167.57 8.53251C165.835 9.06589 163.41 9.71551 160.698 10.2831C157.987 10.8438 155.501 11.213 153.697 11.4182C152.796 11.5208 152.065 11.5891 151.559 11.6233C151.054 11.6575 150.774 11.6644 150.767 11.637C150.767 11.6097 151.04 11.5618 151.539 11.4797C152.113 11.3908 152.823 11.2883 153.663 11.1652C155.453 10.8985 157.918 10.4882 160.623 9.92749C163.328 9.36676 165.753 8.75133 167.501 8.28634C168.321 8.06752 169.011 7.88289 169.571 7.73246C170.063 7.60937 170.336 7.54783 170.343 7.56834Z" fill="white"/>
<path d="M191.795 5.15238C191.788 5.25496 189.657 5.18658 187.041 5.33018C184.425 5.4601 182.307 5.7473 182.294 5.64473C182.287 5.59686 182.806 5.46694 183.66 5.32334C184.513 5.17974 185.702 5.04297 187.02 4.96776C188.338 4.89937 189.534 4.91989 190.401 4.96776C191.269 5.0293 191.801 5.10452 191.795 5.15238Z" fill="white"/>
<defs>
<linearGradient id="paint0_linear_1158_9211" x1="179.126" y1="227.302" x2="186.81" y2="218.492" gradientUnits="userSpaceOnUse">
<stop stop-color="#4E9CFF"/>
<stop offset="0.9844" stop-color="#176AD4"/>
</linearGradient>
<linearGradient id="paint1_linear_1158_9211" x1="182.191" y1="212.854" x2="191.843" y2="194.92" gradientUnits="userSpaceOnUse">
<stop stop-color="#1D0633"/>
<stop offset="1" stop-color="#192B59"/>
</linearGradient>
<linearGradient id="paint2_linear_1158_9211" x1="188.479" y1="122.473" x2="194.858" y2="174.389" gradientUnits="userSpaceOnUse">
<stop stop-color="#4E9CFF"/>
<stop offset="0.9844" stop-color="#176AD4"/>
</linearGradient>
<linearGradient id="paint3_linear_1158_9211" x1="188.546" y1="118.435" x2="190.324" y2="132.912" gradientUnits="userSpaceOnUse">
<stop stop-color="#F2BFAD"/>
<stop offset="1" stop-color="#F2DAD4"/>
</linearGradient>
<linearGradient id="paint4_linear_1158_9211" x1="194.315" y1="211.48" x2="197.44" y2="236.915" gradientUnits="userSpaceOnUse">
<stop stop-color="#4E9CFF"/>
<stop offset="0.9844" stop-color="#176AD4"/>
</linearGradient>
</defs>
</svg>
